<mxfile host="app.diagrams.net" modified="2023-02-21T16:01:38.077Z" agent="5.0 (Macintosh; Intel Mac OS X 10_15_7) AppleWebKit/537.36 (KHTML, like Gecko) Chrome/110.0.0.0 Safari/537.36" etag="L3tDrE9JTd768-p0f_cQ" version="20.8.20" type="github">
  <diagram name="Page-1" id="iKSSGSfsI78JwVMg9x92">
    <mxGraphModel dx="2084" dy="2231" grid="1" gridSize="10" guides="1" tooltips="1" connect="1" arrows="1" fold="1" page="1" pageScale="1" pageWidth="850" pageHeight="1100" math="0" shadow="0">
      <root>
        <mxCell id="0" />
        <mxCell id="1" parent="0" />
        <mxCell id="E7aqRdTUFvspt7AXuFuK-26" value="" style="ellipse;whiteSpace=wrap;html=1;aspect=fixed;strokeColor=#FF0000;dashed=1;fillColor=#fff2cc;strokeWidth=1;" parent="1" vertex="1">
          <mxGeometry x="214" y="260" width="152" height="152" as="geometry" />
        </mxCell>
        <mxCell id="REabcQUZrqvfgA8ZS0G6-1" value="" style="sketch=0;points=[[0,0,0],[0.25,0,0],[0.5,0,0],[0.75,0,0],[1,0,0],[0,1,0],[0.25,1,0],[0.5,1,0],[0.75,1,0],[1,1,0],[0,0.25,0],[0,0.5,0],[0,0.75,0],[1,0.25,0],[1,0.5,0],[1,0.75,0]];outlineConnect=0;fontColor=#232F3E;gradientColor=#F78E04;gradientDirection=north;fillColor=#D05C17;strokeColor=#ffffff;dashed=0;verticalLabelPosition=bottom;verticalAlign=top;align=center;html=1;fontSize=12;fontStyle=0;aspect=fixed;shape=mxgraph.aws4.resourceIcon;resIcon=mxgraph.aws4.eks;" parent="1" vertex="1">
          <mxGeometry x="630" y="290" width="78" height="78" as="geometry" />
        </mxCell>
        <mxCell id="REabcQUZrqvfgA8ZS0G6-2" value="" style="sketch=0;points=[[0,0,0],[0.25,0,0],[0.5,0,0],[0.75,0,0],[1,0,0],[0,1,0],[0.25,1,0],[0.5,1,0],[0.75,1,0],[1,1,0],[0,0.25,0],[0,0.5,0],[0,0.75,0],[1,0.25,0],[1,0.5,0],[1,0.75,0]];outlineConnect=0;fontColor=#232F3E;gradientColor=#F78E04;gradientDirection=north;fillColor=#D05C17;strokeColor=#ffffff;dashed=0;verticalLabelPosition=bottom;verticalAlign=top;align=center;html=1;fontSize=12;fontStyle=0;aspect=fixed;shape=mxgraph.aws4.resourceIcon;resIcon=mxgraph.aws4.eks;" parent="1" vertex="1">
          <mxGeometry x="631" y="459" width="78" height="78" as="geometry" />
        </mxCell>
        <mxCell id="REabcQUZrqvfgA8ZS0G6-3" value="" style="sketch=0;points=[[0,0,0],[0.25,0,0],[0.5,0,0],[0.75,0,0],[1,0,0],[0,1,0],[0.25,1,0],[0.5,1,0],[0.75,1,0],[1,1,0],[0,0.25,0],[0,0.5,0],[0,0.75,0],[1,0.25,0],[1,0.5,0],[1,0.75,0]];outlineConnect=0;fontColor=#232F3E;gradientColor=#F78E04;gradientDirection=north;fillColor=#D05C17;strokeColor=#ffffff;dashed=0;verticalLabelPosition=bottom;verticalAlign=top;align=center;html=1;fontSize=12;fontStyle=0;aspect=fixed;shape=mxgraph.aws4.resourceIcon;resIcon=mxgraph.aws4.eks;" parent="1" vertex="1">
          <mxGeometry x="630" y="630" width="78" height="78" as="geometry" />
        </mxCell>
        <mxCell id="REabcQUZrqvfgA8ZS0G6-4" value="" style="sketch=0;points=[[0,0,0],[0.25,0,0],[0.5,0,0],[0.75,0,0],[1,0,0],[0,1,0],[0.25,1,0],[0.5,1,0],[0.75,1,0],[1,1,0],[0,0.25,0],[0,0.5,0],[0,0.75,0],[1,0.25,0],[1,0.5,0],[1,0.75,0]];outlineConnect=0;fontColor=#232F3E;gradientColor=#F78E04;gradientDirection=north;fillColor=#D05C17;strokeColor=#ffffff;dashed=0;verticalLabelPosition=bottom;verticalAlign=top;align=center;html=1;fontSize=12;fontStyle=0;aspect=fixed;shape=mxgraph.aws4.resourceIcon;resIcon=mxgraph.aws4.eks;" parent="1" vertex="1">
          <mxGeometry x="630" y="800" width="78" height="78" as="geometry" />
        </mxCell>
        <mxCell id="REabcQUZrqvfgA8ZS0G6-25" style="edgeStyle=orthogonalEdgeStyle;curved=1;rounded=0;orthogonalLoop=1;jettySize=auto;html=1;entryX=0;entryY=0.5;entryDx=0;entryDy=0;entryPerimeter=0;strokeColor=#660000;startArrow=classic;startFill=1;strokeWidth=3;" parent="1" source="REabcQUZrqvfgA8ZS0G6-5" target="REabcQUZrqvfgA8ZS0G6-1" edge="1">
          <mxGeometry relative="1" as="geometry" />
        </mxCell>
        <mxCell id="REabcQUZrqvfgA8ZS0G6-27" style="edgeStyle=orthogonalEdgeStyle;curved=1;rounded=0;orthogonalLoop=1;jettySize=auto;html=1;entryX=0.5;entryY=0;entryDx=0;entryDy=0;entryPerimeter=0;strokeColor=#CCCCCC;dashed=1;" parent="1" source="REabcQUZrqvfgA8ZS0G6-5" target="REabcQUZrqvfgA8ZS0G6-2" edge="1">
          <mxGeometry relative="1" as="geometry" />
        </mxCell>
        <mxCell id="REabcQUZrqvfgA8ZS0G6-28" style="edgeStyle=orthogonalEdgeStyle;curved=1;rounded=0;orthogonalLoop=1;jettySize=auto;html=1;entryX=0.5;entryY=0;entryDx=0;entryDy=0;entryPerimeter=0;strokeColor=#CCCCCC;dashed=1;" parent="1" source="REabcQUZrqvfgA8ZS0G6-5" target="REabcQUZrqvfgA8ZS0G6-3" edge="1">
          <mxGeometry relative="1" as="geometry" />
        </mxCell>
        <mxCell id="REabcQUZrqvfgA8ZS0G6-29" style="edgeStyle=orthogonalEdgeStyle;curved=1;rounded=0;orthogonalLoop=1;jettySize=auto;html=1;strokeColor=#CCCCCC;dashed=1;" parent="1" source="REabcQUZrqvfgA8ZS0G6-5" target="REabcQUZrqvfgA8ZS0G6-4" edge="1">
          <mxGeometry relative="1" as="geometry" />
        </mxCell>
        <mxCell id="REabcQUZrqvfgA8ZS0G6-47" style="edgeStyle=orthogonalEdgeStyle;rounded=0;orthogonalLoop=1;jettySize=auto;html=1;entryX=0.5;entryY=1;entryDx=0;entryDy=0;dashed=1;strokeColor=#CC0000;strokeWidth=1;startArrow=none;startFill=0;" parent="1" source="REabcQUZrqvfgA8ZS0G6-5" target="REabcQUZrqvfgA8ZS0G6-44" edge="1">
          <mxGeometry relative="1" as="geometry">
            <Array as="points">
              <mxPoint x="289" y="240" />
              <mxPoint x="150" y="240" />
            </Array>
          </mxGeometry>
        </mxCell>
        <mxCell id="REabcQUZrqvfgA8ZS0G6-48" style="edgeStyle=orthogonalEdgeStyle;rounded=0;orthogonalLoop=1;jettySize=auto;html=1;entryX=0.5;entryY=1;entryDx=0;entryDy=0;dashed=1;strokeColor=#CC0000;strokeWidth=1;startArrow=none;startFill=0;" parent="1" source="REabcQUZrqvfgA8ZS0G6-5" target="REabcQUZrqvfgA8ZS0G6-45" edge="1">
          <mxGeometry relative="1" as="geometry" />
        </mxCell>
        <mxCell id="REabcQUZrqvfgA8ZS0G6-49" style="edgeStyle=orthogonalEdgeStyle;rounded=0;orthogonalLoop=1;jettySize=auto;html=1;entryX=0.5;entryY=1;entryDx=0;entryDy=0;dashed=1;strokeColor=#CC0000;strokeWidth=1;startArrow=none;startFill=0;" parent="1" source="REabcQUZrqvfgA8ZS0G6-5" edge="1">
          <mxGeometry relative="1" as="geometry">
            <Array as="points">
              <mxPoint x="289" y="240" />
              <mxPoint x="450" y="240" />
            </Array>
            <mxPoint x="450" y="190" as="targetPoint" />
          </mxGeometry>
        </mxCell>
        <mxCell id="REabcQUZrqvfgA8ZS0G6-53" style="edgeStyle=entityRelationEdgeStyle;rounded=0;orthogonalLoop=1;jettySize=auto;html=1;dashed=1;strokeColor=#CC0000;strokeWidth=1;startArrow=none;startFill=0;" parent="1" source="REabcQUZrqvfgA8ZS0G6-5" target="REabcQUZrqvfgA8ZS0G6-52" edge="1">
          <mxGeometry relative="1" as="geometry" />
        </mxCell>
        <mxCell id="REabcQUZrqvfgA8ZS0G6-5" value="4-ecc &lt;br&gt;(EKS tools cluster)" style="sketch=0;points=[[0,0,0],[0.25,0,0],[0.5,0,0],[0.75,0,0],[1,0,0],[0,1,0],[0.25,1,0],[0.5,1,0],[0.75,1,0],[1,1,0],[0,0.25,0],[0,0.5,0],[0,0.75,0],[1,0.25,0],[1,0.5,0],[1,0.75,0]];outlineConnect=0;fontColor=#232F3E;gradientColor=#F78E04;gradientDirection=north;fillColor=#D05C17;strokeColor=#ffffff;dashed=0;verticalLabelPosition=bottom;verticalAlign=top;align=center;html=1;fontSize=12;fontStyle=0;aspect=fixed;shape=mxgraph.aws4.resourceIcon;resIcon=mxgraph.aws4.eks;" parent="1" vertex="1">
          <mxGeometry x="250" y="290" width="78" height="78" as="geometry" />
        </mxCell>
        <mxCell id="REabcQUZrqvfgA8ZS0G6-6" value="" style="shape=umlActor;verticalLabelPosition=bottom;verticalAlign=top;html=1;outlineConnect=0;" parent="1" vertex="1">
          <mxGeometry x="-50" y="458" width="30" height="60" as="geometry" />
        </mxCell>
        <mxCell id="REabcQUZrqvfgA8ZS0G6-31" style="edgeStyle=orthogonalEdgeStyle;curved=1;rounded=0;orthogonalLoop=1;jettySize=auto;html=1;dashed=1;dashPattern=8 8;strokeColor=#CCCCCC;" parent="1" source="REabcQUZrqvfgA8ZS0G6-13" target="REabcQUZrqvfgA8ZS0G6-2" edge="1">
          <mxGeometry relative="1" as="geometry" />
        </mxCell>
        <mxCell id="REabcQUZrqvfgA8ZS0G6-13" value="" style="shape=umlActor;verticalLabelPosition=bottom;verticalAlign=top;html=1;outlineConnect=0;" parent="1" vertex="1">
          <mxGeometry x="-40" y="468" width="30" height="60" as="geometry" />
        </mxCell>
        <mxCell id="REabcQUZrqvfgA8ZS0G6-20" style="edgeStyle=orthogonalEdgeStyle;curved=1;rounded=0;orthogonalLoop=1;jettySize=auto;html=1;entryX=0;entryY=0.5;entryDx=0;entryDy=0;entryPerimeter=0;strokeColor=#660000;startArrow=classic;startFill=1;strokeWidth=3;" parent="1" source="REabcQUZrqvfgA8ZS0G6-14" target="REabcQUZrqvfgA8ZS0G6-5" edge="1">
          <mxGeometry relative="1" as="geometry" />
        </mxCell>
        <mxCell id="REabcQUZrqvfgA8ZS0G6-21" style="edgeStyle=orthogonalEdgeStyle;curved=1;rounded=0;orthogonalLoop=1;jettySize=auto;html=1;strokeColor=#006600;startArrow=classic;startFill=1;strokeWidth=3;" parent="1" source="REabcQUZrqvfgA8ZS0G6-14" target="REabcQUZrqvfgA8ZS0G6-1" edge="1">
          <mxGeometry relative="1" as="geometry" />
        </mxCell>
        <mxCell id="REabcQUZrqvfgA8ZS0G6-32" style="edgeStyle=orthogonalEdgeStyle;curved=1;rounded=0;orthogonalLoop=1;jettySize=auto;html=1;entryX=0;entryY=0.5;entryDx=0;entryDy=0;entryPerimeter=0;dashed=1;dashPattern=8 8;strokeColor=#CCCCCC;" parent="1" source="REabcQUZrqvfgA8ZS0G6-14" target="REabcQUZrqvfgA8ZS0G6-3" edge="1">
          <mxGeometry relative="1" as="geometry" />
        </mxCell>
        <mxCell id="REabcQUZrqvfgA8ZS0G6-33" style="edgeStyle=orthogonalEdgeStyle;curved=1;rounded=0;orthogonalLoop=1;jettySize=auto;html=1;entryX=0;entryY=0.5;entryDx=0;entryDy=0;entryPerimeter=0;dashed=1;dashPattern=8 8;strokeColor=#CCCCCC;" parent="1" source="REabcQUZrqvfgA8ZS0G6-14" target="REabcQUZrqvfgA8ZS0G6-4" edge="1">
          <mxGeometry relative="1" as="geometry" />
        </mxCell>
        <mxCell id="REabcQUZrqvfgA8ZS0G6-14" value="" style="shape=umlActor;verticalLabelPosition=bottom;verticalAlign=top;html=1;outlineConnect=0;" parent="1" vertex="1">
          <mxGeometry x="-30" y="478" width="30" height="60" as="geometry" />
        </mxCell>
        <mxCell id="REabcQUZrqvfgA8ZS0G6-16" value="" style="shape=umlActor;verticalLabelPosition=bottom;verticalAlign=top;html=1;outlineConnect=0;" parent="1" vertex="1">
          <mxGeometry x="-45" y="700" width="30" height="60" as="geometry" />
        </mxCell>
        <mxCell id="REabcQUZrqvfgA8ZS0G6-17" value="" style="shape=umlActor;verticalLabelPosition=bottom;verticalAlign=top;html=1;outlineConnect=0;" parent="1" vertex="1">
          <mxGeometry x="-35" y="710" width="30" height="60" as="geometry" />
        </mxCell>
        <mxCell id="REabcQUZrqvfgA8ZS0G6-23" style="edgeStyle=orthogonalEdgeStyle;curved=1;rounded=0;orthogonalLoop=1;jettySize=auto;html=1;strokeColor=#006600;startArrow=classic;startFill=1;strokeWidth=3;" parent="1" source="REabcQUZrqvfgA8ZS0G6-18" target="REabcQUZrqvfgA8ZS0G6-1" edge="1">
          <mxGeometry relative="1" as="geometry" />
        </mxCell>
        <mxCell id="REabcQUZrqvfgA8ZS0G6-24" style="edgeStyle=orthogonalEdgeStyle;curved=1;rounded=0;orthogonalLoop=1;jettySize=auto;html=1;entryX=0;entryY=0.5;entryDx=0;entryDy=0;entryPerimeter=0;strokeColor=#660000;startArrow=classic;startFill=1;strokeWidth=3;" parent="1" source="REabcQUZrqvfgA8ZS0G6-18" target="REabcQUZrqvfgA8ZS0G6-5" edge="1">
          <mxGeometry relative="1" as="geometry" />
        </mxCell>
        <mxCell id="REabcQUZrqvfgA8ZS0G6-34" style="edgeStyle=orthogonalEdgeStyle;curved=1;rounded=0;orthogonalLoop=1;jettySize=auto;html=1;dashed=1;dashPattern=8 8;strokeColor=#CCCCCC;" parent="1" source="REabcQUZrqvfgA8ZS0G6-18" target="REabcQUZrqvfgA8ZS0G6-2" edge="1">
          <mxGeometry relative="1" as="geometry" />
        </mxCell>
        <mxCell id="REabcQUZrqvfgA8ZS0G6-35" style="edgeStyle=orthogonalEdgeStyle;curved=1;rounded=0;orthogonalLoop=1;jettySize=auto;html=1;entryX=0;entryY=0.5;entryDx=0;entryDy=0;entryPerimeter=0;dashed=1;dashPattern=8 8;strokeColor=#CCCCCC;" parent="1" source="REabcQUZrqvfgA8ZS0G6-18" target="REabcQUZrqvfgA8ZS0G6-3" edge="1">
          <mxGeometry relative="1" as="geometry" />
        </mxCell>
        <mxCell id="REabcQUZrqvfgA8ZS0G6-36" style="edgeStyle=orthogonalEdgeStyle;curved=1;rounded=0;orthogonalLoop=1;jettySize=auto;html=1;entryX=0;entryY=0.5;entryDx=0;entryDy=0;entryPerimeter=0;dashed=1;dashPattern=8 8;strokeColor=#CCCCCC;" parent="1" source="REabcQUZrqvfgA8ZS0G6-18" target="REabcQUZrqvfgA8ZS0G6-4" edge="1">
          <mxGeometry relative="1" as="geometry" />
        </mxCell>
        <mxCell id="REabcQUZrqvfgA8ZS0G6-18" value="Kube Developers" style="shape=umlActor;verticalLabelPosition=bottom;verticalAlign=top;html=1;outlineConnect=0;" parent="1" vertex="1">
          <mxGeometry x="-25" y="720" width="30" height="60" as="geometry" />
        </mxCell>
        <mxCell id="REabcQUZrqvfgA8ZS0G6-19" value="Kube Admins" style="text;html=1;align=center;verticalAlign=middle;resizable=0;points=[];autosize=1;strokeColor=none;fillColor=none;" parent="1" vertex="1">
          <mxGeometry x="-60" y="550" width="90" height="30" as="geometry" />
        </mxCell>
        <mxCell id="REabcQUZrqvfgA8ZS0G6-38" value="EKS cluster A" style="text;html=1;align=center;verticalAlign=middle;resizable=0;points=[];autosize=1;strokeColor=none;fillColor=none;" parent="1" vertex="1">
          <mxGeometry x="740" y="310" width="100" height="30" as="geometry" />
        </mxCell>
        <mxCell id="REabcQUZrqvfgA8ZS0G6-39" value="EKS cluster B" style="text;html=1;align=center;verticalAlign=middle;resizable=0;points=[];autosize=1;strokeColor=none;fillColor=none;" parent="1" vertex="1">
          <mxGeometry x="740" y="483" width="100" height="30" as="geometry" />
        </mxCell>
        <mxCell id="REabcQUZrqvfgA8ZS0G6-40" value="EKS cluster C" style="text;html=1;align=center;verticalAlign=middle;resizable=0;points=[];autosize=1;strokeColor=none;fillColor=none;" parent="1" vertex="1">
          <mxGeometry x="750" y="655" width="100" height="30" as="geometry" />
        </mxCell>
        <mxCell id="REabcQUZrqvfgA8ZS0G6-41" value="EKS cluster ..." style="text;html=1;align=center;verticalAlign=middle;resizable=0;points=[];autosize=1;strokeColor=none;fillColor=none;" parent="1" vertex="1">
          <mxGeometry x="750" y="824" width="100" height="30" as="geometry" />
        </mxCell>
        <mxCell id="E7aqRdTUFvspt7AXuFuK-9" style="edgeStyle=orthogonalEdgeStyle;rounded=0;orthogonalLoop=1;jettySize=auto;html=1;dashed=1;strokeColor=#FF0000;" parent="1" source="REabcQUZrqvfgA8ZS0G6-44" target="E7aqRdTUFvspt7AXuFuK-5" edge="1">
          <mxGeometry relative="1" as="geometry" />
        </mxCell>
        <mxCell id="E7aqRdTUFvspt7AXuFuK-10" style="rounded=0;orthogonalLoop=1;jettySize=auto;html=1;dashed=1;strokeColor=#FF0000;" parent="1" source="REabcQUZrqvfgA8ZS0G6-44" target="E7aqRdTUFvspt7AXuFuK-6" edge="1">
          <mxGeometry relative="1" as="geometry" />
        </mxCell>
        <mxCell id="E7aqRdTUFvspt7AXuFuK-11" style="rounded=0;orthogonalLoop=1;jettySize=auto;html=1;dashed=1;strokeColor=#FF0000;" parent="1" source="REabcQUZrqvfgA8ZS0G6-44" target="E7aqRdTUFvspt7AXuFuK-8" edge="1">
          <mxGeometry relative="1" as="geometry" />
        </mxCell>
        <mxCell id="REabcQUZrqvfgA8ZS0G6-44" value="Gitlab Internal" style="ellipse;whiteSpace=wrap;html=1;aspect=fixed;fillColor=#fff2cc;strokeColor=#d6b656;" parent="1" vertex="1">
          <mxGeometry x="110" y="110" width="80" height="80" as="geometry" />
        </mxCell>
        <mxCell id="E7aqRdTUFvspt7AXuFuK-24" style="edgeStyle=none;rounded=0;orthogonalLoop=1;jettySize=auto;html=1;entryX=0.563;entryY=1.06;entryDx=0;entryDy=0;entryPerimeter=0;dashed=1;strokeColor=#FF0000;" parent="1" source="REabcQUZrqvfgA8ZS0G6-45" target="E7aqRdTUFvspt7AXuFuK-12" edge="1">
          <mxGeometry relative="1" as="geometry" />
        </mxCell>
        <mxCell id="REabcQUZrqvfgA8ZS0G6-45" value="Vault" style="ellipse;whiteSpace=wrap;html=1;aspect=fixed;" parent="1" vertex="1">
          <mxGeometry x="250" y="110" width="80" height="80" as="geometry" />
        </mxCell>
        <mxCell id="REabcQUZrqvfgA8ZS0G6-52" value="&lt;ul style=&quot;font-size: 15px;&quot;&gt;&lt;li style=&quot;text-align: justify; font-size: 15px;&quot;&gt;? Single failure.&lt;/li&gt;&lt;li style=&quot;text-align: justify; font-size: 15px;&quot;&gt;? Backup/restore.&lt;/li&gt;&lt;li style=&quot;text-align: justify; font-size: 15px;&quot;&gt;? Always available.&lt;br style=&quot;font-size: 15px;&quot;&gt;&lt;/li&gt;&lt;li style=&quot;text-align: justify; font-size: 15px;&quot;&gt;? Git repo works&lt;/li&gt;&lt;li style=&quot;text-align: justify; font-size: 15px;&quot;&gt;???&lt;/li&gt;&lt;/ul&gt;" style="text;html=1;align=center;verticalAlign=middle;resizable=0;points=[];autosize=1;strokeColor=none;fillColor=none;fontSize=15;fontColor=#000000;" parent="1" vertex="1">
          <mxGeometry x="-165" y="185" width="190" height="130" as="geometry" />
        </mxCell>
        <mxCell id="E7aqRdTUFvspt7AXuFuK-18" style="edgeStyle=none;rounded=0;orthogonalLoop=1;jettySize=auto;html=1;entryX=0.5;entryY=1;entryDx=0;entryDy=0;entryPerimeter=0;dashed=1;strokeColor=#FF0000;" parent="1" source="E7aqRdTUFvspt7AXuFuK-1" target="E7aqRdTUFvspt7AXuFuK-13" edge="1">
          <mxGeometry relative="1" as="geometry" />
        </mxCell>
        <mxCell id="E7aqRdTUFvspt7AXuFuK-19" style="edgeStyle=none;rounded=0;orthogonalLoop=1;jettySize=auto;html=1;entryX=0.5;entryY=1;entryDx=0;entryDy=0;entryPerimeter=0;dashed=1;strokeColor=#FF0000;" parent="1" source="E7aqRdTUFvspt7AXuFuK-1" target="E7aqRdTUFvspt7AXuFuK-17" edge="1">
          <mxGeometry relative="1" as="geometry" />
        </mxCell>
        <mxCell id="E7aqRdTUFvspt7AXuFuK-20" style="edgeStyle=none;rounded=0;orthogonalLoop=1;jettySize=auto;html=1;entryX=0;entryY=0.5;entryDx=0;entryDy=0;dashed=1;strokeColor=#FF0000;" parent="1" source="E7aqRdTUFvspt7AXuFuK-1" target="E7aqRdTUFvspt7AXuFuK-14" edge="1">
          <mxGeometry relative="1" as="geometry" />
        </mxCell>
        <mxCell id="E7aqRdTUFvspt7AXuFuK-21" style="edgeStyle=none;rounded=0;orthogonalLoop=1;jettySize=auto;html=1;dashed=1;strokeColor=#FF0000;" parent="1" source="E7aqRdTUFvspt7AXuFuK-1" target="E7aqRdTUFvspt7AXuFuK-16" edge="1">
          <mxGeometry relative="1" as="geometry" />
        </mxCell>
        <mxCell id="E7aqRdTUFvspt7AXuFuK-1" value="Monitoring" style="ellipse;whiteSpace=wrap;html=1;aspect=fixed;" parent="1" vertex="1">
          <mxGeometry x="410" y="110" width="80" height="80" as="geometry" />
        </mxCell>
        <mxCell id="E7aqRdTUFvspt7AXuFuK-5" value="Code" style="verticalLabelPosition=bottom;html=1;verticalAlign=top;align=center;strokeColor=none;fillColor=#00BEF2;shape=mxgraph.azure.github_code;pointerEvents=1;" parent="1" vertex="1">
          <mxGeometry x="125" y="-10" width="50" height="50" as="geometry" />
        </mxCell>
        <mxCell id="E7aqRdTUFvspt7AXuFuK-6" value="Docker images" style="sketch=0;aspect=fixed;html=1;points=[];align=center;image;fontSize=12;image=img/lib/mscae/Docker.svg;" parent="1" vertex="1">
          <mxGeometry x="40" y="30" width="50" height="41" as="geometry" />
        </mxCell>
        <mxCell id="E7aqRdTUFvspt7AXuFuK-8" value="Gitlab workflow" style="sketch=0;outlineConnect=0;fontColor=#232F3E;gradientColor=none;fillColor=#D45B07;strokeColor=none;dashed=0;verticalLabelPosition=bottom;verticalAlign=top;align=center;html=1;fontSize=12;fontStyle=0;aspect=fixed;pointerEvents=1;shape=mxgraph.aws4.deployment;" parent="1" vertex="1">
          <mxGeometry y="100" width="48" height="46" as="geometry" />
        </mxCell>
        <mxCell id="E7aqRdTUFvspt7AXuFuK-12" value="" style="sketch=0;aspect=fixed;html=1;points=[];align=center;image;fontSize=12;image=img/lib/mscae/Key_Vaults.svg;" parent="1" vertex="1">
          <mxGeometry x="265" y="-10" width="48" height="50" as="geometry" />
        </mxCell>
        <mxCell id="E7aqRdTUFvspt7AXuFuK-13" value="" style="sketch=0;points=[[0.015,0.015,0],[0.985,0.015,0],[0.985,0.985,0],[0.015,0.985,0],[0.25,0,0],[0.5,0,0],[0.75,0,0],[1,0.25,0],[1,0.5,0],[1,0.75,0],[0.75,1,0],[0.5,1,0],[0.25,1,0],[0,0.75,0],[0,0.5,0],[0,0.25,0]];verticalLabelPosition=bottom;html=1;verticalAlign=top;aspect=fixed;align=center;pointerEvents=1;shape=mxgraph.cisco19.rect;prIcon=monitor;fillColor=#FAFAFA;strokeColor=#005073;" parent="1" vertex="1">
          <mxGeometry x="500" y="-10" width="50" height="39.06" as="geometry" />
        </mxCell>
        <mxCell id="E7aqRdTUFvspt7AXuFuK-14" value="" style="shape=image;html=1;verticalAlign=top;verticalLabelPosition=bottom;labelBackgroundColor=#ffffff;imageAspect=0;aspect=fixed;image=https://cdn1.iconfinder.com/data/icons/ui-essential-17/32/UI_Essential_Outline_1_essential-app-ui-sound-speaker-128.png" parent="1" vertex="1">
          <mxGeometry x="616" y="81" width="50" height="50" as="geometry" />
        </mxCell>
        <mxCell id="E7aqRdTUFvspt7AXuFuK-16" value="" style="aspect=fixed;html=1;points=[];align=center;image;fontSize=12;image=img/lib/azure2/other/Grafana.svg;" parent="1" vertex="1">
          <mxGeometry x="616" y="145.59" width="50" height="38.82" as="geometry" />
        </mxCell>
        <mxCell id="E7aqRdTUFvspt7AXuFuK-17" value="" style="strokeWidth=2;html=1;shape=mxgraph.flowchart.database;whiteSpace=wrap;" parent="1" vertex="1">
          <mxGeometry x="581" y="20" width="50" height="50" as="geometry" />
        </mxCell>
        <mxCell id="YKit_Geb9ufmEt66s8in-2" value="" style="shape=image;html=1;verticalAlign=top;verticalLabelPosition=bottom;labelBackgroundColor=#ffffff;imageAspect=0;aspect=fixed;image=https://cdn4.iconfinder.com/data/icons/success-filloutline/64/idea-read-knowledge-light_bulb-thinking-128.png;dashed=1;strokeColor=#FF0000;strokeWidth=1;" vertex="1" parent="1">
          <mxGeometry x="-150" y="146" width="50" height="50" as="geometry" />
        </mxCell>
      </root>
    </mxGraphModel>
  </diagram>
</mxfile>
